<svg xmlns="http://www.w3.org/2000/svg" viewBox="0 0 128 128" width="128" height="128">
  <defs>
    <linearGradient id="g" x1="0%" y1="0%" x2="100%" y2="100%">
      <stop offset="0%" stop-color="#6366F1"/>
      <stop offset="100%" stop-color="#4F46E5"/>
    </linearGradient>
  </defs>
  <path d="M64 8 112 28v32c0 28-20 52-48 60-28-8-48-32-48-60V28Z" fill="url(#g)" stroke="#312E81" stroke-width="2"/>
  <path d="M64 20 100 36v24c0 22-16 42-36 48-20-6-36-26-36-48V36Z" fill="#4338CA"/>
  <path d="M48 61v-9a16 16 0 0 1 32 0v9h5v27H43V61Zm9 0h14v-9a7 7 0 0 0-14 0Z" fill="#fff"/>
</svg>
